<svg xmlns="http://www.w3.org/2000/svg" viewBox="0 0 78.56 19.74"><defs><style>.cls-1{fill:#5a6f07;}.cls-2{fill:#403234;}</style></defs><g id="Calque_2" data-name="Calque 2"><g id="Calque_1-2" data-name="Calque 1"><path class="cls-1" d="M16.27,10.89H5.13v7a.92.92,0,0,0,.2.65,1.39,1.39,0,0,0,.7.37v.45H0v-.45a1.5,1.5,0,0,0,.71-.37,1,1,0,0,0,.2-.65V1.47A1,1,0,0,0,.71.82,1.5,1.5,0,0,0,0,.45V0H6V.45a1.47,1.47,0,0,0-.71.36,1,1,0,0,0-.19.66V7.7H16.27V1.47a1,1,0,0,0-.2-.66,1.42,1.42,0,0,0-.71-.36V0h6V.45a1.5,1.5,0,0,0-.71.37,1,1,0,0,0-.2.65V17.86a1,1,0,0,0,.2.65,1.5,1.5,0,0,0,.71.37v.45h-6v-.45a1.35,1.35,0,0,0,.7-.37.92.92,0,0,0,.21-.65Z"/><path class="cls-1" d="M28.18,11.44v6.42a1,1,0,0,0,.2.65,1.39,1.39,0,0,0,.7.37v.45h-6v-.45a1.5,1.5,0,0,0,.71-.37,1,1,0,0,0,.2-.65V1.49a1,1,0,0,0-.2-.67,1.5,1.5,0,0,0-.71-.37V0h12.1a19,19,0,0,1,3.5.25,6.16,6.16,0,0,1,2.26.9,4.52,4.52,0,0,1,1.67,2,6.54,6.54,0,0,1,.52,2.61q0,4.73-5.25,5.54l3.75,5.33a12.27,12.27,0,0,0,1.45,1.81,1.87,1.87,0,0,0,1.13.45v.45h-7v-.45q.72-.12.72-.51a3.62,3.62,0,0,0-.67-1.24l-3.91-5.69Zm0-3.19h6.51a16.27,16.27,0,0,0,2-.08,3.24,3.24,0,0,0,1.09-.35,2.18,2.18,0,0,0,1.08-2.1,2.18,2.18,0,0,0-1.08-2.1,3.44,3.44,0,0,0-1.08-.36,19,19,0,0,0-2.05-.07H28.18Z"/><path class="cls-2" d="M43.68,19.33V16.27h1.58V8.17H43.68V5.11h5.81V6.63h.11a3.52,3.52,0,0,1,5.72-.52,5.12,5.12,0,0,1,1,3.36v6.8h1.43v3.06H52.09V10.17a3.51,3.51,0,0,0-.25-1.59,1,1,0,0,0-.93-.45,1.41,1.41,0,0,0-.61.12,6.09,6.09,0,0,0-.81.56v7.46h1.22v3.06Z"/><path class="cls-2" d="M66.23,14.88l3.51,1.31a5.51,5.51,0,0,1-2,2.63,5.43,5.43,0,0,1-3.12.92q-5.36,0-5.36-7.69A8.83,8.83,0,0,1,60.7,6.57a4.83,4.83,0,0,1,4-1.86,4.67,4.67,0,0,1,3.73,1.74,7.71,7.71,0,0,1,1.46,5.06v1.33H63.45a10.56,10.56,0,0,0,.28,3.1,1,1,0,0,0,1,.74,1.15,1.15,0,0,0,1-.45A3.1,3.1,0,0,0,66.23,14.88Zm-2.78-4.15H65.7V10c0-1.61-.37-2.42-1.11-2.42a.91.91,0,0,0-.9.74A8.37,8.37,0,0,0,63.45,10.73Z"/><path class="cls-2" d="M78.56,16.11v3.16a7.84,7.84,0,0,1-2.58.47c-2.24,0-3.37-1.36-3.37-4.07V8.17H71.34V5.11h1.27V3.33L76.85,0v5.1h1.71V8.17H76.85v6.34a2.77,2.77,0,0,0,.24,1.35.91.91,0,0,0,.83.4A1.6,1.6,0,0,0,78.56,16.11Z"/></g></g></svg>